<svg xmlns="http://www.w3.org/2000/svg" viewBox="0 0 800 800" width="800" height="800"><rect width="800" height="800" fill="#1A1D24"/><circle cx="400" cy="380" r="300" fill="none" stroke="#C8F53D" stroke-width="10" opacity="0.9"/><circle cx="400" cy="380" r="330" fill="none" stroke="#C8F53D" stroke-width="2" opacity="0.35"/><path d="M170 800 C180 620 290 560 400 560 C510 560 620 620 630 800Z" fill="#2B2F3A"/><path d="M330 560 L400 640 L470 560" fill="none" stroke="#1B1E26" stroke-width="16"/><rect x="360" y="470" width="80" height="100" rx="30" fill="#C99B7C"/><ellipse cx="400" cy="390" rx="120" ry="140" fill="#D8A985"/><path d="M280 360 C280 250 340 215 405 215 C480 215 530 260 525 350 C500 300 460 290 420 300 C380 285 320 300 280 360Z" fill="#1C1A1F"/><path d="M262 400 C255 260 330 190 400 190 C470 190 545 260 538 400" fill="none" stroke="#111318" stroke-width="26" stroke-linecap="round"/><rect x="236" y="360" width="56" height="110" rx="24" fill="#111318"/><rect x="508" y="360" width="56" height="110" rx="24" fill="#111318"/><rect x="244" y="380" width="12" height="70" rx="6" fill="#C8F53D"/><rect x="544" y="380" width="12" height="70" rx="6" fill="#C8F53D"/><path d="M290 460 C300 520 340 540 380 540" fill="none" stroke="#111318" stroke-width="10" stroke-linecap="round"/><circle cx="386" cy="540" r="14" fill="#111318"/><path d="M350 380 h40 M420 380 h40" stroke="#1C1A1F" stroke-width="10" stroke-linecap="round"/><path d="M372 460 C390 472 410 472 428 460" stroke="#8A5A45" stroke-width="8" fill="none" stroke-linecap="round"/></svg>
