<svg xmlns="http://www.w3.org/2000/svg" viewBox="0 0 600 600" width="600" height="600"><rect width="600" height="600" fill="#F3E1EA"/><g transform="translate(300.0,130.0) rotate(0.0)"><path d="M-31.0,55.0 L-31.0,-5.5 C-31.0,-41.8 -12.4,-55.0 0,-55.0 C12.4,-55.0 31.0,-41.8 31.0,-5.5 L31.0,55.0 Z" fill="#6B2F4F"/><path d="M-13.64,33.0 L-13.64,-13.2 C-13.64,-30.800000000000004 -6.2,-39.6 0,-41.8" stroke="#fff" stroke-opacity="0.45" stroke-width="4.96" fill="none" stroke-linecap="round"/></g><g transform="translate(420.2081528017131,179.79184719828692) rotate(45.0)"><path d="M-31.0,55.0 L-31.0,-5.5 C-31.0,-41.8 -12.4,-55.0 0,-55.0 C12.4,-55.0 31.0,-41.8 31.0,-5.5 L31.0,55.0 Z" fill="#D9A6A0"/><path d="M-13.64,33.0 L-13.64,-13.2 C-13.64,-30.800000000000004 -6.2,-39.6 0,-41.8" stroke="#fff" stroke-opacity="0.45" stroke-width="4.96" fill="none" stroke-linecap="round"/></g><g transform="translate(470.0,300.0) rotate(90.0)"><path d="M-31.0,55.0 L-31.0,-5.5 C-31.0,-41.8 -12.4,-55.0 0,-55.0 C12.4,-55.0 31.0,-41.8 31.0,-5.5 L31.0,55.0 Z" fill="#E8CDBE"/><path d="M-13.64,33.0 L-13.64,-13.2 C-13.64,-30.800000000000004 -6.2,-39.6 0,-41.8" stroke="#fff" stroke-opacity="0.45" stroke-width="4.96" fill="none" stroke-linecap="round"/></g><g transform="translate(420.2081528017131,420.2081528017131) rotate(135.0)"><path d="M-31.0,55.0 L-31.0,-5.5 C-31.0,-41.8 -12.4,-55.0 0,-55.0 C12.4,-55.0 31.0,-41.8 31.0,-5.5 L31.0,55.0 Z" fill="#B96E83"/><path d="M-13.64,33.0 L-13.64,-13.2 C-13.64,-30.800000000000004 -6.2,-39.6 0,-41.8" stroke="#fff" stroke-opacity="0.45" stroke-width="4.96" fill="none" stroke-linecap="round"/></g><g transform="translate(300.0,470.0) rotate(180.0)"><path d="M-31.0,55.0 L-31.0,-5.5 C-31.0,-41.8 -12.4,-55.0 0,-55.0 C12.4,-55.0 31.0,-41.8 31.0,-5.5 L31.0,55.0 Z" fill="#2A1E26"/><path d="M-13.64,33.0 L-13.64,-13.2 C-13.64,-30.800000000000004 -6.2,-39.6 0,-41.8" stroke="#fff" stroke-opacity="0.45" stroke-width="4.96" fill="none" stroke-linecap="round"/></g><g transform="translate(179.79184719828692,420.20815280171314) rotate(225.0)"><path d="M-31.0,55.0 L-31.0,-5.5 C-31.0,-41.8 -12.4,-55.0 0,-55.0 C12.4,-55.0 31.0,-41.8 31.0,-5.5 L31.0,55.0 Z" fill="#F0DCD3"/><path d="M-13.64,33.0 L-13.64,-13.2 C-13.64,-30.800000000000004 -6.2,-39.6 0,-41.8" stroke="#fff" stroke-opacity="0.45" stroke-width="4.96" fill="none" stroke-linecap="round"/></g><g transform="translate(130.0,300.00000000000006) rotate(270.0)"><path d="M-31.0,55.0 L-31.0,-5.5 C-31.0,-41.8 -12.4,-55.0 0,-55.0 C12.4,-55.0 31.0,-41.8 31.0,-5.5 L31.0,55.0 Z" fill="#9C4A62"/><path d="M-13.64,33.0 L-13.64,-13.2 C-13.64,-30.800000000000004 -6.2,-39.6 0,-41.8" stroke="#fff" stroke-opacity="0.45" stroke-width="4.96" fill="none" stroke-linecap="round"/></g><g transform="translate(179.7918471982869,179.79184719828694) rotate(315.0)"><path d="M-31.0,55.0 L-31.0,-5.5 C-31.0,-41.8 -12.4,-55.0 0,-55.0 C12.4,-55.0 31.0,-41.8 31.0,-5.5 L31.0,55.0 Z" fill="#C9A27A"/><path d="M-13.64,33.0 L-13.64,-13.2 C-13.64,-30.800000000000004 -6.2,-39.6 0,-41.8" stroke="#fff" stroke-opacity="0.45" stroke-width="4.96" fill="none" stroke-linecap="round"/></g><circle cx="300" cy="300" r="70" fill="#FBF7F5"/><circle cx="300" cy="300" r="20" fill="#C9A27A"/></svg>
