<svg xmlns="http://www.w3.org/2000/svg" viewBox="0 0 800 1000" width="800" height="1000"><rect width="800" height="1000" fill="#FBF7F5"/><path d="M160 1000 V420 A240 240 0 0 1 640 420 V1000Z" fill="#F3E1EA"/><rect x="0" y="760" width="800" height="240" fill="#E9D3D9"/><rect x="0" y="752" width="800" height="12" fill="#DCC2CA"/><rect x="150" y="522" width="130" height="230" rx="26" fill="#6B2F4F"/><rect x="168" y="544" width="16" height="170" rx="8" fill="#fff" opacity="0.25"/><rect x="193.0" y="372" width="44" height="150" rx="10" fill="#2A1E26"/><rect x="320" y="562" width="120" height="190" rx="26" fill="#D9A6A0"/><rect x="338" y="584" width="16" height="130" rx="8" fill="#fff" opacity="0.25"/><rect x="358.0" y="412" width="44" height="150" rx="10" fill="#2A1E26"/><rect x="470" y="502" width="130" height="250" rx="26" fill="#E8CDBE"/><rect x="488" y="524" width="16" height="190" rx="8" fill="#fff" opacity="0.25"/><rect x="513.0" y="352" width="44" height="150" rx="10" fill="#C9A27A"/><rect x="590" y="712" width="170" height="30" rx="8" fill="#2A1E26"/><rect x="600" y="742" width="7" height="10" fill="#2A1E26"/><rect x="614" y="742" width="7" height="10" fill="#2A1E26"/><rect x="628" y="742" width="7" height="10" fill="#2A1E26"/><rect x="642" y="742" width="7" height="10" fill="#2A1E26"/><rect x="656" y="742" width="7" height="10" fill="#2A1E26"/><rect x="670" y="742" width="7" height="10" fill="#2A1E26"/><rect x="684" y="742" width="7" height="10" fill="#2A1E26"/><rect x="698" y="742" width="7" height="10" fill="#2A1E26"/><rect x="712" y="742" width="7" height="10" fill="#2A1E26"/><rect x="726" y="742" width="7" height="10" fill="#2A1E26"/><rect x="740" y="742" width="7" height="10" fill="#2A1E26"/><path d="M660 752 C650 600 700 520 690 430" stroke="#6E7F63" stroke-width="6" fill="none"/><circle cx="690" cy="420" r="34" fill="#E7B9C6"/><circle cx="690" cy="420" r="12" fill="#C9A27A"/><path d="M90 752 C100 640 60 580 80 500" stroke="#6E7F63" stroke-width="6" fill="none"/><circle cx="80" cy="490" r="26" fill="#F3D9DF"/></svg>
